<?xml version="1.0" encoding="UTF-8"?>
<svg version="1.1" xmlns="http://www.w3.org/2000/svg" width="76" height="89">
<path d="M0 0 C2.52612305 1.19580078 2.52612305 1.19580078 5.01171875 2.6953125 C6.39713867 3.52289063 6.39713867 3.52289063 7.81054688 4.3671875 C8.75994141 4.94726562 9.70933594 5.52734375 10.6875 6.125 C11.61755859 6.681875 12.54761719 7.23875 13.50585938 7.8125 C15.3979611 8.95064573 17.27391358 10.1160431 19.13330078 11.30688477 C21.95997991 13.08027263 21.95997991 13.08027263 25.09716797 14.20678711 C28.64545345 15.77767574 30.55693987 16.95543196 33 20 C34.95866328 26.20253761 34.83308375 32.76228941 34.76367188 39.20483398 C34.75003952 42.30351744 34.88520771 45.37203243 35.03125 48.46679688 C35.29344601 62.32973459 35.29344601 62.32973459 31.39706421 66.86630249 C27.35460899 70.11670548 22.84362063 72.19028021 18.06256104 74.13369751 C15.41559036 75.24545966 13.04065663 76.67291079 10.61328125 78.19921875 C9.18050271 79.03005326 7.74695727 79.85956723 6.3125 80.6875 C5.21518555 81.34782227 5.21518555 81.34782227 4.09570312 82.02148438 C3.37962891 82.43076172 2.66355469 82.84003906 1.92578125 83.26171875 C1.00406128 83.80252075 1.00406128 83.80252075 0.0637207 84.35424805 C-3.75952484 85.55056704 -6.99917432 84.47376478 -10.52612305 82.80419922 C-11.75649292 82.06194092 -11.75649292 82.06194092 -13.01171875 81.3046875 C-13.92993408 80.75651367 -14.84814941 80.20833984 -15.79418945 79.64355469 C-16.74898193 79.05993164 -17.70377441 78.47630859 -18.6875 77.875 C-19.66614014 77.2862207 -20.64478027 76.69744141 -21.65307617 76.09082031 C-39.96174484 65.03825516 -39.96174484 65.03825516 -42 63 C-42.39012056 56.96502065 -42.48526289 50.92870342 -42.56982422 44.88256836 C-42.60645446 42.84440338 -42.66099567 40.80647761 -42.73388672 38.76928711 C-42.83747033 35.83099714 -42.8817754 32.8968671 -42.9140625 29.95703125 C-42.95737701 29.05056351 -43.00069153 28.14409576 -43.0453186 27.2101593 C-43.03735897 24.53224677 -42.91099245 22.52203755 -42 20 C-39.31434805 17.35763041 -36.33971004 15.70194095 -33 14 C-32.02256836 13.42741455 -31.04513672 12.8548291 -30.03808594 12.26489258 C-28.77399902 11.58656372 -28.77399902 11.58656372 -27.484375 10.89453125 C-26.54335938 10.38599609 -25.60234375 9.87746094 -24.6328125 9.35351562 C-23.68148438 8.84498047 -22.73015625 8.33644531 -21.75 7.8125 C-19.82762931 6.77826457 -17.90573773 5.74313801 -15.984375 4.70703125 C-15.14616211 4.2581958 -14.30794922 3.80936035 -13.44433594 3.34692383 C-10.94280166 2.02902404 -10.94280166 2.02902404 -8.56347656 0.26831055 C-5.2029584 -1.39434582 -3.56697786 -1.01747818 0 0 Z M-9.58984375 6.94140625 C-10.28658203 7.35720947 -10.98332031 7.7730127 -11.70117188 8.20141602 C-12.8081543 8.87515259 -12.8081543 8.87515259 -13.9375 9.5625 C-15.46729146 10.47942774 -16.99724046 11.39609271 -18.52734375 12.3125 C-19.28257324 12.76753906 -20.03780273 13.22257812 -20.81591797 13.69140625 C-24.80775236 16.08311566 -28.84519414 18.39566238 -32.875 20.72265625 C-34.90981913 21.82923608 -34.90981913 21.82923608 -36 23 C-36.41336018 28.16125599 -36.52806153 33.32320431 -36.62475586 38.49902344 C-36.66634273 40.23952293 -36.72764315 41.97967098 -36.80932617 43.71875 C-37.61124009 53.64618462 -37.61124009 53.64618462 -34.10302734 62.51049805 C-31.49218755 64.36673455 -28.91299873 65.67368431 -26 67 C-24.20228237 68.10824234 -22.41566085 69.23468708 -20.640625 70.37890625 C-18.84671031 71.44510083 -17.04982254 72.50630891 -15.25 73.5625 C-14.34378906 74.12001953 -13.43757813 74.67753906 -12.50390625 75.25195312 C-11.17939453 76.02635742 -11.17939453 76.02635742 -9.828125 76.81640625 C-9.0434082 77.28506104 -8.25869141 77.75371582 -7.45019531 78.23657227 C-3.03783489 79.61136811 0.22277967 77.39455552 4.15966797 75.39599609 C5.25939941 74.77805176 6.35913086 74.16010742 7.4921875 73.5234375 C8.08299103 73.19332672 8.67379456 72.86321594 9.28250122 72.52310181 C11.14940575 71.478532 13.01222321 70.42690967 14.875 69.375 C16.14817298 68.66098645 17.4216081 67.94744012 18.6953125 67.234375 C21.79992351 65.49497356 24.90091292 63.74922862 28 62 C28.24825571 56.71673653 28.42910794 51.43689973 28.54931641 46.14916992 C28.59943914 44.35332084 28.66756372 42.55787657 28.75439453 40.76342773 C29.61725184 30.52641771 29.61725184 30.52641771 26.02172852 21.39013672 C23.42533701 19.54280504 20.92257471 18.25847616 18 17 C16.55782907 16.16569532 15.12342057 15.31774657 13.69921875 14.453125 C12.36504006 13.71320368 11.02783913 12.97870253 9.6875 12.25 C8.33690262 11.50581956 6.9866342 10.76104173 5.63671875 10.015625 C5.01071777 9.67337891 4.3847168 9.33113281 3.73974609 8.97851562 C2.20031695 8.11266775 0.69995397 7.17815272 -0.79296875 6.234375 C-4.3531634 4.24318649 -6.31353113 4.96335964 -9.58984375 6.94140625 Z " fill="#000000" transform="translate(43,4)"/>
<path d="M0 0 C2.7578125 0.12109375 2.7578125 0.12109375 6 1 C8.1171875 3.72265625 8.1171875 3.72265625 9.875 7.0625 C10.47054687 8.16722656 11.06609375 9.27195312 11.6796875 10.41015625 C12.11539063 11.26480469 12.55109375 12.11945312 13 13 C15.57178084 9.71876238 17.45778528 6.32294806 19.328125 2.609375 C21 1 21 1 24.671875 0.765625 C26.31929687 0.88164062 26.31929687 0.88164062 28 1 C26.73079864 3.3967104 25.45969813 5.79238093 24.1875 8.1875 C23.83107422 8.86103516 23.47464844 9.53457031 23.10742188 10.22851562 C22.58051758 11.21948242 22.58051758 11.21948242 22.04296875 12.23046875 C21.52416138 13.20826294 21.52416138 13.20826294 20.99487305 14.20581055 C20.16090677 15.70981501 19.23120439 17.16018247 18.28125 18.59375 C16.69309447 21.57638356 16.4971036 23.95271443 16.3125 27.3125 C16.21388672 28.91544922 16.21388672 28.91544922 16.11328125 30.55078125 C16.07589844 31.35902344 16.03851563 32.16726562 16 33 C14.34385343 33.38218767 12.67542976 33.71395102 11 34 C10.67 33.67 10.34 33.34 10 33 C10.01160156 32.2265625 10.02320313 31.453125 10.03515625 30.65625 C10.11367808 21.59258779 7.30793476 16.11731633 2.41821289 8.65039062 C1.74326782 7.61301758 1.74326782 7.61301758 1.0546875 6.5546875 C0.63687012 5.94093262 0.21905273 5.32717773 -0.21142578 4.69482422 C-1 3 -1 3 0 0 Z " fill="#000000" transform="translate(25,31)"/>
<path d="M0 0 C2.33294775 -0.04241723 4.66702567 -0.04092937 7 0 C8 1 8 1 8.12025452 2.79066467 C8.1169236 3.95981667 8.1169236 3.95981667 8.11352539 5.15258789 C8.11344986 6.03342545 8.11337433 6.914263 8.11329651 7.8217926 C8.10813522 8.77907761 8.10297394 9.73636261 8.09765625 10.72265625 C8.0962413 11.69786728 8.09482635 12.67307831 8.09336853 13.67784119 C8.08775133 16.80609143 8.07519593 19.93427123 8.0625 23.0625 C8.05748722 25.17773334 8.05292393 27.29296781 8.04882812 29.40820312 C8.03777631 34.60549296 8.02102146 39.80274145 8 45 C6.68 44.67 5.36 44.34 4 44 C4.33 31.13 4.66 18.26 5 5 C3.68 4.67 2.36 4.34 1 4 C0.67 2.68 0.34 1.36 0 0 Z " fill="#000000" transform="translate(68,23)"/>
<path d="M0 0 C0.99 0 1.98 0 3 0 C3 13.86 3 27.72 3 42 C4.65 42.66 6.3 43.32 8 44 C7.67 44.99 7.34 45.98 7 47 C1.33904167 45.52322826 1.33904167 45.52322826 -0.18013 43.17875671 C-1.03405084 40.90951187 -1.2478416 39.30302822 -1.24291992 36.88989258 C-1.24753487 35.69394218 -1.24753487 35.69394218 -1.25224304 34.47383118 C-1.24505753 33.6226622 -1.23787201 32.77149323 -1.23046875 31.89453125 C-1.23001053 31.01472092 -1.22955231 30.13491058 -1.2290802 29.22843933 C-1.22606426 27.37338915 -1.21819767 25.51834135 -1.20581055 23.66333008 C-1.18750046 20.81257239 -1.18530131 17.9621386 -1.18554688 15.11132812 C-1.18063353 13.309893 -1.17480602 11.5084601 -1.16796875 9.70703125 C-1.16685593 8.84978958 -1.1657431 7.99254791 -1.16459656 7.10932922 C-1.11606391 1.11606391 -1.11606391 1.11606391 0 0 Z " fill="#000000" transform="translate(4,23)"/>
<path d="M0 0 C2.83203125 0.13671875 2.83203125 0.13671875 6 1 C7.57421875 3.58203125 7.57421875 3.58203125 8.6875 6.8125 C10.1399609 11.15183081 10.1399609 11.15183081 12.6328125 14.90234375 C14.67279768 18.03226387 14.32022049 21.14953124 14.1875 24.75 C14.17396484 25.44738281 14.16042969 26.14476563 14.14648438 26.86328125 C14.1112945 28.57585541 14.05749155 30.28802941 14 32 C13.34 32 12.68 32 12 32 C11.90203125 31.10796875 11.8040625 30.2159375 11.703125 29.296875 C11.55359375 28.12640625 11.4040625 26.9559375 11.25 25.75 C11.04117188 24.00976562 11.04117188 24.00976562 10.828125 22.234375 C9.878443 18.52523964 8.78510419 17.52321375 6 15 C4.66784633 13.01905292 3.39842191 10.9947926 2.1875 8.9375 C1.24970703 7.37322266 1.24970703 7.37322266 0.29296875 5.77734375 C-1 3 -1 3 0 0 Z " fill="#000000" transform="translate(25,31)"/>
<path d="M0 0 C0 0.66 0 1.32 0 2 C-0.99 2 -1.98 2 -3 2 C-3.33 3.32 -3.66 4.64 -4 6 C-2.02 5.34 -0.04 4.68 2 4 C-0.95267206 7.23387892 -3.87922748 9.22245249 -7.75 11.25 C-8.73484375 11.77078125 -9.7196875 12.2915625 -10.734375 12.828125 C-11.85585937 13.40820312 -11.85585937 13.40820312 -13 14 C-13.02467917 19.23274388 -13.04285003 24.46545403 -13.05493164 29.69824219 C-13.05996711 31.47917267 -13.06679581 33.260099 -13.07543945 35.04101562 C-13.08753942 37.59766665 -13.09323609 40.15426312 -13.09765625 42.7109375 C-13.10281754 43.50994476 -13.10797882 44.30895203 -13.11329651 45.13217163 C-13.2133875 49.19691905 -13.2133875 49.19691905 -12 53 C-12.99 52.67 -13.98 52.34 -15 52 C-15.02470469 46.50073576 -15.04286223 41.00150378 -15.05493164 35.50219727 C-15.05996279 33.63109779 -15.06678835 31.76000225 -15.07543945 29.88891602 C-15.08755829 27.20067372 -15.09324047 24.51248336 -15.09765625 21.82421875 C-15.10281754 20.98662521 -15.10797882 20.14903168 -15.11329651 19.28605652 C-15.11362064 15.93624258 -15.06684515 13.20053544 -14 10 C-14.99 9.67 -15.98 9.34 -17 9 C-13.66666667 7 -10.33333333 5 -7 3 C-6.10667969 2.43925781 -5.21335937 1.87851563 -4.29296875 1.30078125 C-2 0 -2 0 0 0 Z " fill="#000000" transform="translate(21,13)"/>
<path d="M0 0 C1.67533376 3.35066753 1.09835709 7.122852 1.0625 10.8046875 C1.05871338 11.68021271 1.05492676 12.55573792 1.05102539 13.45779419 C1.03464585 17.21134075 1.00656522 20.96477948 0.97949219 24.71826172 C0.96141272 27.45539853 0.94931236 30.19251762 0.9375 32.9296875 C0.92920166 33.77771942 0.92090332 34.62575134 0.91235352 35.4994812 C0.90739868 36.69059006 0.90739868 36.69059006 0.90234375 37.90576172 C0.89710693 38.60144257 0.89187012 39.29712341 0.88647461 40.0138855 C1.00665221 42.11637968 1.42729117 43.97757771 2 46 C1.01 46 0.02 46 -1 46 C-2.5273211 44.4726789 -2.13452391 43.09995977 -2.14526367 40.97094727 C-2.15164352 40.11658585 -2.15802338 39.26222443 -2.16459656 38.38197327 C-2.16570938 37.45283615 -2.1668222 36.52369904 -2.16796875 35.56640625 C-2.17129715 34.61813461 -2.17462555 33.66986298 -2.17805481 32.69285583 C-2.18312819 30.68285611 -2.18546301 28.67284792 -2.18530273 26.6628418 C-2.18748822 23.57912381 -2.20563683 20.49576394 -2.22460938 17.41210938 C-2.22754334 15.4635429 -2.22952812 13.51497471 -2.23046875 11.56640625 C-2.23765427 10.63929337 -2.24483978 9.71218048 -2.25224304 8.75697327 C-2.24916641 7.89945969 -2.24608978 7.04194611 -2.24291992 6.15844727 C-2.24434494 5.40201431 -2.24576996 4.64558136 -2.24723816 3.8662262 C-2 2 -2 2 0 0 Z " fill="#000000" transform="translate(3,22)"/>
<path d="M0 0 C4.14341892 1.38113964 4.96582454 3.18374776 7 7 C7.28139654 9.78582574 7.38863832 12.12356255 7.25 14.875 C7.23195313 15.56335937 7.21390625 16.25171875 7.1953125 16.9609375 C7.14863748 18.6412381 7.07690939 20.32081163 7 22 C6.34 22 5.68 22 5 22 C4.85304688 20.7315625 4.85304688 20.7315625 4.703125 19.4375 C3.78458764 12.46928557 2.56936301 7.06791711 -1 1 C-0.67 0.67 -0.34 0.34 0 0 Z " fill="#000000" transform="translate(32,41)"/>
<path d="M0 0 C0.33 0.99 0.66 1.98 1 3 C0.01 3 -0.98 3 -2 3 C-2 4.32 -2 5.64 -2 7 C-4.64 7.99 -7.28 8.98 -10 10 C-10 7 -10 7 -9 5 C-8.01 5 -7.02 5 -6 5 C-6 4.01 -6 3.02 -6 2 C-4.02 1.34 -2.04 0.68 0 0 Z " fill="#000000" transform="translate(27,10)"/>
<path d="M0 0 C3.09415757 0.42656082 6.05880129 0.92998438 9 2 C10.5625 4.625 10.5625 4.625 11 7 C9.35 7.33 7.7 7.66 6 8 C5.67 6.68 5.34 5.36 5 4 C4.360625 3.896875 3.72125 3.79375 3.0625 3.6875 C2.381875 3.460625 1.70125 3.23375 1 3 C0.67 2.01 0.34 1.02 0 0 Z " fill="#000000" transform="translate(44,8)"/>
<path d="M0 0 C0.99 0.33 1.98 0.66 3 1 C3 1.66 3 2.32 3 3 C3.99 3.33 4.98 3.66 6 4 C6.6875 6.0625 6.6875 6.0625 7 8 C3.62496331 6.8141763 1.35277269 5.72426311 -1 3 C-0.67 2.01 -0.34 1.02 0 0 Z " fill="#000000" transform="translate(59,16)"/>
<path d="M0 0 C5.35048061 0.37328935 7.50912907 1.9957657 11 6 C7.97580475 5.41196203 4.98241547 4.77321882 2 4 C2 3.34 2 2.68 2 2 C1.34 2 0.68 2 0 2 C0 1.34 0 0.68 0 0 Z " fill="#000000" transform="translate(26,79)"/>
<path d="M0 0 C0.66 0 1.32 0 2 0 C1.67 1.65 1.34 3.3 1 5 C-2 6 -2 6 -4.1875 5.0625 C-4.785625 4.711875 -5.38375 4.36125 -6 4 C-5.67 3.34 -5.34 2.68 -5 2 C-3.67696283 1.6278958 -2.34262065 1.29369827 -1 1 C-0.67 0.67 -0.34 0.34 0 0 Z " fill="#000000" transform="translate(43,82)"/>
<path d="M0 0 C1.98180213 1.79305907 3.20358221 3.3501614 4.5625 5.6875 C5.2740625 6.8321875 5.2740625 6.8321875 6 8 C6.66 8 7.32 8 8 8 C7.67 9.32 7.34 10.64 7 12 C3.66488612 9.0098979 1.78478881 6.10501426 0 2 C0 1.34 0 0.68 0 0 Z " fill="#000000" transform="translate(32,36)"/>
<path d="M0 0 C2.4375 1.0625 2.4375 1.0625 5 3 C5.8125 6.6875 5.8125 6.6875 6 10 C3.38275905 7.63202009 1.67138271 5.10399646 0 2 C0 1.34 0 0.68 0 0 Z " fill="#000000" transform="translate(24,32)"/>
<path d="M0 0 C3 1 3 1 3 1 Z M-6 1 C-4.02 1 -2.04 1 0 1 C0.66 2.65 1.32 4.3 2 6 C-1.37503669 4.8141763 -3.64722731 3.72426311 -6 1 Z " fill="#000000" transform="translate(23,75)"/>
<path d="M0 0 C0 0.33 0 0.66 0 1 C-3.63 1.66 -7.26 2.32 -11 3 C-6.77319309 -1.22680691 -5.69611211 -1.11445672 0 0 Z " fill="#000000" transform="translate(43,4)"/>
<path d="M0 0 C0.99 0 1.98 0 3 0 C2.67 1.65 2.34 3.3 2 5 C0.68 4.67 -0.64 4.34 -2 4 C-1.34 2.68 -0.68 1.36 0 0 Z " fill="#000000" transform="translate(48,79)"/>
<path d="M0 0 C1.65 0.33 3.3 0.66 5 1 C4.01 1.33 3.02 1.66 2 2 C2 2.66 2 3.32 2 4 C0.68 3.67 -0.64 3.34 -2 3 C-1.34 2.01 -0.68 1.02 0 0 Z " fill="#000000" transform="translate(10,19)"/>
</svg>
